PathFileType	4	(X/Y/Z)	C:\Users\chris\Desktop\Pose2Sim_Project\videos\pitch1_Sports2D\pitch1_Sports2D_px_person00.trc
DataRate	CameraRate	NumFrames	NumMarkers	Units	OrigDataRate	OrigDataStartFrame	OrigNumFrames
30.0	30.0	6	22	m	30.0	55	110
Frame#	Time	Hip			RHip			RKnee			RAnkle			RBigToe			RSmallToe			RHeel			LHip			LKnee			LAnkle			LBigToe			LSmallToe			LHeel			Neck			Head			Nose			RShoulder			RElbow			RWrist			LShoulder			LElbow			LWrist		
		X1	Y1	Z1	X2	Y2	Z2	X3	Y3	Z3	X4	Y4	Z4	X5	Y5	Z5	X6	Y6	Z6	X7	Y7	Z7	X8	Y8	Z8	X9	Y9	Z9	X10	Y10	Z10	X11	Y11	Z11	X12	Y12	Z12	X13	Y13	Z13	X14	Y14	Z14	X15	Y15	Z15	X16	Y16	Z16	X17	Y17	Z17	X18	Y18	Z18	X19	Y19	Z19	X20	Y20	Z20	X21	Y21	Z21	X22	Y22	Z22
55	1.8333333333333333	416.5938436603486	332.76763808007325	0.0	378.1706297376977	338.82762098775726	0.0	363.8279637796454	491.5735840138857	0.0	369.33300469043206	629.2701846384892	0.0	365.8062975033563	679.0506862035884	0.0	352.8810707784463	679.5892331882086	0.0	379.7044905512266	647.8825331612345	0.0	452.30646202396525	326.91090720005457	0.0	364.1725090516936	204.101238345352	0.0	286.6320022524688	348.6465417467224	0.0	220.2590671729365	308.82180171259336	0.0	224.17719505923424	319.9756529060279	0.0	275.6644996948836	381.0158679581667	0.0	384.58899555035333	169.23527576055477	0.0	357.15133854128726	81.50161491983083	0.0	361.3915029328127	135.33452609918928	0.0	328.4642366279314	174.6628783507559	0.0	281.41347080251046	244.01598906477437	0.0	323.9867100298932	170.64018450090444	0.0	449.08115651008325	164.50132377418888	0.0	467.8721615958606	250.86791030088906	0.0	412.246601253129	178.76736565888643	0.0
56	1.8666666666666667	420.7899086207059	332.97871416358487	0.0	383.60083798769915	337.7627979751202	0.0	363.7724885254478	491.7072395898447	0.0	370.06608752498323	628.5705819021152	0.0	368.11544585927123	679.0529838167537	0.0	354.04672273907846	679.5754481922008	0.0	380.0171703809808	645.5462551134351	0.0	454.9141622435785	327.4011261955354	0.0	361.8591488341485	210.2053231692566	0.0	293.78480301842364	360.5765270500499	0.0	227.05412654584998	326.6331186378279	0.0	229.7689918921119	338.81934978791406	0.0	285.07569752692046	391.45540185623696	0.0	388.1451351892583	171.01375365394597	0.0	357.5862977323898	82.01961375738496	0.0	363.85000776255504	137.90521367527495	0.0	332.2820100834022	175.7170439982184	0.0	285.40274351811826	247.52775384895227	0.0	324.613874074827	174.3207436260323	0.0	451.1867173754879	164.39980023525862	0.0	470.3778822211439	250.78814189972138	0.0	416.15482169464536	179.1728520328072	0.0
57	1.9	425.7838539611929	332.4643527574393	0.0	388.90177331248185	337.05432900914366	0.0	364.8142688750597	492.65510505392876	0.0	370.87298526660976	629.3083483339597	0.0	369.8832598220413	679.2209474779447	0.0	355.03304647426916	680.23567545135	0.0	380.2215865643654	645.5971599586157	0.0	458.92370970854785	328.72962876499395	0.0	358.34691633967697	225.21643708690382	0.0	303.3636542735847	379.63311086759893	0.0	235.80313347373604	354.95694759777115	0.0	238.94365827609653	368.50495379462177	0.0	297.14555870062594	408.59880973546	0.0	391.57124612856614	168.30720174810494	0.0	368.0282579848055	75.80321336869488	0.0	380.0835286265331	131.69991775136108	0.0	335.60006505190086	176.84162099042996	0.0	291.18168442131434	251.81668305933357	0.0	325.9238114068286	176.73376116660026	0.0	454.2278180123626	164.29397969035205	0.0	473.1347457286684	250.66150671167523	0.0	420.18976900397536	181.84644191508326	0.0
58	1.9333333333333333	429.9914013832687	330.36507600484845	0.0	392.63967445328757	336.85060425160714	0.0	366.7751059521943	494.6284691088942	0.0	371.36972465982	630.5564851464632	0.0	370.3553921109616	679.3908236361327	0.0	355.80406492403165	680.5411304611548	0.0	379.75915364730116	647.4594748618667	0.0	464.7048087423473	329.8715611743584	0.0	355.4345592395771	247.59345349272297	0.0	314.98846453242265	403.1606686203578	0.0	246.12574705364443	391.9245671711734	0.0	252.48753536909555	407.1116363508595	0.0	312.4772883978112	430.49675285797184	0.0	395.33495400783	161.58112344801367	0.0	384.0198577761353	64.35781591560365	0.0	404.66199891582	118.3108335294411	0.0	338.3926756323822	177.00289400794526	0.0	298.3940991946722	256.8342461072562	0.0	328.92510045819904	179.563743385004	0.0	457.71184900663246	164.12996435481082	0.0	476.53227085178673	251.48646641629227	0.0	424.09002992259536	186.3366378227855	0.0
59	1.9666666666666666	432.83462961847204	327.0626024151863	0.0	395.4877001829087	336.5216477324101	0.0	368.8940198118811	496.26805912115753	0.0	371.93119144733214	630.6840706094614	0.0	369.4996216249292	679.4240987899443	0.0	356.1185541049147	679.5516110413103	0.0	379.15688680293533	649.0497959519164	0.0	471.16024667176316	330.30339306393796	0.0	353.66508202919624	274.88620527638034	0.0	327.3059480544477	429.69858380109076	0.0	257.9230206758846	435.39351537925063	0.0	269.4702879784588	451.4147057684063	0.0	329.96452097465897	455.23598933066523	0.0	399.41237375161705	155.08604654695722	0.0	394.37696831154705	55.07665318350684	0.0	423.6908953379609	106.74136966685967	0.0	340.9319990932499	176.08948833819022	0.0	305.7239174685138	263.39473641765346	0.0	333.11739579104255	186.6115186966669	0.0	460.3715269233859	164.46673738094705	0.0	481.91405457807195	253.40400230941995	0.0	427.8407998784	192.42152922923032	0.0
60	2.0	435.68110858046737	324.57526784755316	0.0	399.1695226237029	335.81516935475906	0.0	370.7243934931045	496.28216190851776	0.0	373.2133350357492	629.5924625113655	0.0	367.76730457415636	679.5225562438161	0.0	356.01347234022245	677.9136815953186	0.0	380.0562025473923	650.3160645199941	0.0	476.4801124214564	330.24408951172904	0.0	352.3540205583056	305.7260247147939	0.0	338.70857022434427	459.37033286766	0.0	271.3278737805756	481.86082794554807	0.0	288.45840989644523	496.2337806927816	0.0	346.7956721123511	482.32601534367126	0.0	402.84762158730774	152.27266618368367	0.0	395.816416096388	52.76612761831906	0.0	431.4099662750404	103.17401252722225	0.0	343.58277888416166	175.48364250840393	0.0	312.543693761156	271.8758668923841	0.0	338.50872559239485	200.9441665708449	0.0	462.10107953954275	166.24348824879505	0.0	490.2124306432466	255.53465943362812	0.0	431.38998826251606	201.49339734002888	0.0
